<mxfile host="app.diagrams.net" modified="2023-09-26T23:12:26.097Z" agent="Mozilla/5.0 (Windows NT 10.0; Win64; x64) AppleWebKit/537.36 (KHTML, like Gecko) Chrome/116.0.0.0 Safari/537.36 OPR/102.0.0.0" etag="8M7EowEPEyMwmv8hwGyM" version="21.8.2" type="github">
  <diagram id="C5RBs43oDa-KdzZeNtuy" name="Page-1">
    <mxGraphModel dx="2063" dy="559" grid="1" gridSize="10" guides="1" tooltips="1" connect="1" arrows="1" fold="1" page="1" pageScale="1" pageWidth="827" pageHeight="1169" math="0" shadow="0">
      <root>
        <mxCell id="WIyWlLk6GJQsqaUBKTNV-0" />
        <mxCell id="WIyWlLk6GJQsqaUBKTNV-1" parent="WIyWlLk6GJQsqaUBKTNV-0" />
        <mxCell id="HAlKXmDzrB93N0-EfDcC-2" value="frame" style="shape=umlFrame;whiteSpace=wrap;html=1;width=40;height=15;" parent="WIyWlLk6GJQsqaUBKTNV-1" vertex="1">
          <mxGeometry x="200" y="80" width="500" height="400" as="geometry" />
        </mxCell>
        <mxCell id="zkfFHV4jXpPFQw0GAbJ--16" value="" style="endArrow=block;endSize=10;endFill=0;shadow=0;strokeWidth=1;rounded=0;edgeStyle=elbowEdgeStyle;elbow=vertical;" parent="WIyWlLk6GJQsqaUBKTNV-1" edge="1">
          <mxGeometry width="160" relative="1" as="geometry">
            <mxPoint x="100" y="400" as="sourcePoint" />
            <mxPoint y="360" as="targetPoint" />
            <Array as="points">
              <mxPoint x="35" y="400" />
            </Array>
          </mxGeometry>
        </mxCell>
        <mxCell id="zkfFHV4jXpPFQw0GAbJ--26" value="" style="endArrow=open;shadow=0;strokeWidth=1;rounded=0;endFill=1;elbow=vertical;entryX=0;entryY=0.5;entryDx=0;entryDy=0;" parent="WIyWlLk6GJQsqaUBKTNV-1" source="HAlKXmDzrB93N0-EfDcC-4" target="HAlKXmDzrB93N0-EfDcC-1" edge="1">
          <mxGeometry x="0.5" y="41" relative="1" as="geometry">
            <mxPoint x="160" y="310" as="sourcePoint" />
            <mxPoint x="160" y="380" as="targetPoint" />
            <mxPoint x="-40" y="32" as="offset" />
            <Array as="points">
              <mxPoint x="230" y="130" />
            </Array>
          </mxGeometry>
        </mxCell>
        <mxCell id="HAlKXmDzrB93N0-EfDcC-0" value="Сервіс API сповіщень" style="shape=umlActor;verticalLabelPosition=bottom;verticalAlign=top;html=1;" parent="WIyWlLk6GJQsqaUBKTNV-1" vertex="1">
          <mxGeometry x="750" y="160" width="30" height="60" as="geometry" />
        </mxCell>
        <mxCell id="HAlKXmDzrB93N0-EfDcC-1" value="Отримати інформацію із&lt;br&gt;рекамендацією про навколишнє середовище" style="ellipse;whiteSpace=wrap;html=1;" parent="WIyWlLk6GJQsqaUBKTNV-1" vertex="1">
          <mxGeometry x="370" y="90" width="150" height="80" as="geometry" />
        </mxCell>
        <mxCell id="HAlKXmDzrB93N0-EfDcC-4" value="Споживач" style="shape=umlActor;verticalLabelPosition=bottom;verticalAlign=top;html=1;" parent="WIyWlLk6GJQsqaUBKTNV-1" vertex="1">
          <mxGeometry x="100" y="170" width="30" height="60" as="geometry" />
        </mxCell>
        <mxCell id="HAlKXmDzrB93N0-EfDcC-6" value="Поет-споживач" style="shape=umlActor;verticalLabelPosition=bottom;verticalAlign=top;html=1;" parent="WIyWlLk6GJQsqaUBKTNV-1" vertex="1">
          <mxGeometry x="100" y="390" width="30" height="60" as="geometry" />
        </mxCell>
        <mxCell id="HAlKXmDzrB93N0-EfDcC-7" value="" style="endArrow=open;shadow=0;strokeWidth=1;rounded=0;endFill=1;elbow=vertical;entryX=0;entryY=0.5;entryDx=0;entryDy=0;" parent="WIyWlLk6GJQsqaUBKTNV-1" target="HAlKXmDzrB93N0-EfDcC-8" edge="1">
          <mxGeometry x="0.5" y="41" relative="1" as="geometry">
            <mxPoint x="140" y="419.9956200372513" as="sourcePoint" />
            <mxPoint x="329.02" y="434.81" as="targetPoint" />
            <mxPoint x="-40" y="32" as="offset" />
          </mxGeometry>
        </mxCell>
        <mxCell id="HAlKXmDzrB93N0-EfDcC-8" value="Економіти енергію" style="ellipse;whiteSpace=wrap;html=1;" parent="WIyWlLk6GJQsqaUBKTNV-1" vertex="1">
          <mxGeometry x="235" y="370" width="140" height="70" as="geometry" />
        </mxCell>
        <mxCell id="WbjszZyxLFySHewX1BDN-3" value="Користувач" style="shape=umlActor;verticalLabelPosition=bottom;verticalAlign=top;html=1;" parent="WIyWlLk6GJQsqaUBKTNV-1" vertex="1">
          <mxGeometry x="-10" y="270" width="30" height="60" as="geometry" />
        </mxCell>
        <mxCell id="WbjszZyxLFySHewX1BDN-8" value="" style="endArrow=block;endSize=10;endFill=0;shadow=0;strokeWidth=1;rounded=0;edgeStyle=elbowEdgeStyle;elbow=vertical;entryX=0.5;entryY=0;entryDx=0;entryDy=0;entryPerimeter=0;" parent="WIyWlLk6GJQsqaUBKTNV-1" target="WbjszZyxLFySHewX1BDN-3" edge="1">
          <mxGeometry width="160" relative="1" as="geometry">
            <mxPoint x="90" y="200" as="sourcePoint" />
            <mxPoint x="40" y="260" as="targetPoint" />
            <Array as="points">
              <mxPoint x="70" y="200" />
            </Array>
          </mxGeometry>
        </mxCell>
        <mxCell id="WbjszZyxLFySHewX1BDN-11" value="Переглянути інформацію" style="ellipse;whiteSpace=wrap;html=1;" parent="WIyWlLk6GJQsqaUBKTNV-1" vertex="1">
          <mxGeometry x="210" y="140" width="140" height="70" as="geometry" />
        </mxCell>
        <mxCell id="WbjszZyxLFySHewX1BDN-12" value="Брати участь у конкурсах" style="ellipse;whiteSpace=wrap;html=1;" parent="WIyWlLk6GJQsqaUBKTNV-1" vertex="1">
          <mxGeometry x="390" y="400" width="140" height="70" as="geometry" />
        </mxCell>
        <mxCell id="WbjszZyxLFySHewX1BDN-13" value="Налаштувати навколишнє середовище" style="ellipse;whiteSpace=wrap;html=1;" parent="WIyWlLk6GJQsqaUBKTNV-1" vertex="1">
          <mxGeometry x="375" y="260" width="140" height="70" as="geometry" />
        </mxCell>
        <mxCell id="WbjszZyxLFySHewX1BDN-14" value="Зміцнення самоповаги" style="ellipse;whiteSpace=wrap;html=1;" parent="WIyWlLk6GJQsqaUBKTNV-1" vertex="1">
          <mxGeometry x="530" y="210" width="140" height="70" as="geometry" />
        </mxCell>
        <mxCell id="WbjszZyxLFySHewX1BDN-15" value="Психолог" style="shape=umlActor;verticalLabelPosition=bottom;verticalAlign=top;html=1;" parent="WIyWlLk6GJQsqaUBKTNV-1" vertex="1">
          <mxGeometry x="750" y="280" width="30" height="60" as="geometry" />
        </mxCell>
        <mxCell id="WbjszZyxLFySHewX1BDN-17" value="Аналіз ринку фінансів" style="ellipse;whiteSpace=wrap;html=1;" parent="WIyWlLk6GJQsqaUBKTNV-1" vertex="1">
          <mxGeometry x="210" y="220" width="140" height="70" as="geometry" />
        </mxCell>
        <mxCell id="f1oy8qKzSN7gV6_Jh2f9-0" value="" style="endArrow=none;html=1;rounded=0;entryX=0.333;entryY=0.833;entryDx=0;entryDy=0;entryPerimeter=0;" edge="1" parent="WIyWlLk6GJQsqaUBKTNV-1" source="WbjszZyxLFySHewX1BDN-14" target="WbjszZyxLFySHewX1BDN-15">
          <mxGeometry width="50" height="50" relative="1" as="geometry">
            <mxPoint x="450" y="390" as="sourcePoint" />
            <mxPoint x="500" y="340" as="targetPoint" />
          </mxGeometry>
        </mxCell>
        <mxCell id="f1oy8qKzSN7gV6_Jh2f9-2" value="&amp;lt;&amp;lt;extend&amp;gt;&amp;gt;" style="html=1;verticalAlign=bottom;endArrow=open;dashed=1;endSize=8;curved=0;rounded=0;entryX=1;entryY=0;entryDx=0;entryDy=0;" edge="1" parent="WIyWlLk6GJQsqaUBKTNV-1" source="HAlKXmDzrB93N0-EfDcC-1" target="WbjszZyxLFySHewX1BDN-11">
          <mxGeometry relative="1" as="geometry">
            <mxPoint x="510" y="370" as="sourcePoint" />
            <mxPoint x="430" y="370" as="targetPoint" />
          </mxGeometry>
        </mxCell>
        <mxCell id="f1oy8qKzSN7gV6_Jh2f9-3" value="&amp;lt;&amp;lt;include&amp;gt;&amp;gt;" style="html=1;verticalAlign=bottom;endArrow=open;dashed=1;endSize=8;curved=0;rounded=0;" edge="1" parent="WIyWlLk6GJQsqaUBKTNV-1" source="HAlKXmDzrB93N0-EfDcC-8" target="WbjszZyxLFySHewX1BDN-13">
          <mxGeometry relative="1" as="geometry">
            <mxPoint x="510" y="370" as="sourcePoint" />
            <mxPoint x="430" y="370" as="targetPoint" />
          </mxGeometry>
        </mxCell>
        <mxCell id="f1oy8qKzSN7gV6_Jh2f9-6" value="" style="endArrow=none;html=1;rounded=0;exitX=2;exitY=1.167;exitDx=0;exitDy=0;exitPerimeter=0;entryX=0.5;entryY=1;entryDx=0;entryDy=0;" edge="1" parent="WIyWlLk6GJQsqaUBKTNV-1" source="HAlKXmDzrB93N0-EfDcC-6" target="WbjszZyxLFySHewX1BDN-12">
          <mxGeometry width="50" height="50" relative="1" as="geometry">
            <mxPoint x="450" y="390" as="sourcePoint" />
            <mxPoint x="480" y="520" as="targetPoint" />
            <Array as="points">
              <mxPoint x="160" y="490" />
              <mxPoint x="160" y="510" />
              <mxPoint x="460" y="510" />
            </Array>
          </mxGeometry>
        </mxCell>
        <mxCell id="f1oy8qKzSN7gV6_Jh2f9-7" value="" style="endArrow=none;html=1;rounded=0;entryX=0;entryY=0.3333333333333333;entryDx=0;entryDy=0;entryPerimeter=0;exitX=0.973;exitY=0.622;exitDx=0;exitDy=0;exitPerimeter=0;" edge="1" parent="WIyWlLk6GJQsqaUBKTNV-1" source="HAlKXmDzrB93N0-EfDcC-1" target="HAlKXmDzrB93N0-EfDcC-0">
          <mxGeometry width="50" height="50" relative="1" as="geometry">
            <mxPoint x="450" y="390" as="sourcePoint" />
            <mxPoint x="500" y="340" as="targetPoint" />
          </mxGeometry>
        </mxCell>
        <mxCell id="f1oy8qKzSN7gV6_Jh2f9-8" value="" style="endArrow=none;html=1;rounded=0;entryX=0.103;entryY=0.189;entryDx=0;entryDy=0;entryPerimeter=0;" edge="1" parent="WIyWlLk6GJQsqaUBKTNV-1" source="HAlKXmDzrB93N0-EfDcC-4" target="WbjszZyxLFySHewX1BDN-17">
          <mxGeometry width="50" height="50" relative="1" as="geometry">
            <mxPoint x="450" y="390" as="sourcePoint" />
            <mxPoint x="500" y="340" as="targetPoint" />
          </mxGeometry>
        </mxCell>
        <mxCell id="f1oy8qKzSN7gV6_Jh2f9-9" value="&amp;lt;&amp;lt;include&amp;gt;&amp;gt;" style="html=1;verticalAlign=bottom;endArrow=open;dashed=1;endSize=8;curved=0;rounded=0;exitX=0.5;exitY=1;exitDx=0;exitDy=0;entryX=0.5;entryY=0;entryDx=0;entryDy=0;" edge="1" parent="WIyWlLk6GJQsqaUBKTNV-1" source="HAlKXmDzrB93N0-EfDcC-1" target="WbjszZyxLFySHewX1BDN-13">
          <mxGeometry relative="1" as="geometry">
            <mxPoint x="510" y="370" as="sourcePoint" />
            <mxPoint x="430" y="370" as="targetPoint" />
          </mxGeometry>
        </mxCell>
        <mxCell id="f1oy8qKzSN7gV6_Jh2f9-10" value="&amp;lt;&amp;lt;include&amp;gt;&amp;gt;" style="html=1;verticalAlign=bottom;endArrow=open;dashed=1;endSize=8;curved=0;rounded=0;entryX=0;entryY=0.5;entryDx=0;entryDy=0;" edge="1" parent="WIyWlLk6GJQsqaUBKTNV-1" source="WbjszZyxLFySHewX1BDN-17" target="WbjszZyxLFySHewX1BDN-13">
          <mxGeometry relative="1" as="geometry">
            <mxPoint x="510" y="370" as="sourcePoint" />
            <mxPoint x="430" y="370" as="targetPoint" />
          </mxGeometry>
        </mxCell>
        <mxCell id="f1oy8qKzSN7gV6_Jh2f9-13" value="" style="endArrow=none;html=1;rounded=0;exitX=0.667;exitY=0.667;exitDx=0;exitDy=0;exitPerimeter=0;entryX=0.007;entryY=0.74;entryDx=0;entryDy=0;entryPerimeter=0;" edge="1" parent="WIyWlLk6GJQsqaUBKTNV-1" source="WbjszZyxLFySHewX1BDN-3" target="WbjszZyxLFySHewX1BDN-13">
          <mxGeometry width="50" height="50" relative="1" as="geometry">
            <mxPoint x="450" y="290" as="sourcePoint" />
            <mxPoint x="370" y="320" as="targetPoint" />
          </mxGeometry>
        </mxCell>
        <mxCell id="f1oy8qKzSN7gV6_Jh2f9-14" value="&amp;lt;&amp;lt;include&amp;gt;&amp;gt;" style="html=1;verticalAlign=bottom;endArrow=open;dashed=1;endSize=8;curved=0;rounded=0;exitX=0.5;exitY=0;exitDx=0;exitDy=0;entryX=0.5;entryY=1;entryDx=0;entryDy=0;" edge="1" parent="WIyWlLk6GJQsqaUBKTNV-1" source="WbjszZyxLFySHewX1BDN-12" target="WbjszZyxLFySHewX1BDN-13">
          <mxGeometry relative="1" as="geometry">
            <mxPoint x="510" y="270" as="sourcePoint" />
            <mxPoint x="430" y="270" as="targetPoint" />
          </mxGeometry>
        </mxCell>
        <mxCell id="f1oy8qKzSN7gV6_Jh2f9-16" value="Сортирувати сміття" style="ellipse;whiteSpace=wrap;html=1;" vertex="1" parent="WIyWlLk6GJQsqaUBKTNV-1">
          <mxGeometry x="540" y="360" width="140" height="70" as="geometry" />
        </mxCell>
        <mxCell id="f1oy8qKzSN7gV6_Jh2f9-17" value="" style="endArrow=none;html=1;rounded=0;exitX=0.5;exitY=0;exitDx=0;exitDy=0;exitPerimeter=0;entryX=0.5;entryY=1;entryDx=0;entryDy=0;" edge="1" parent="WIyWlLk6GJQsqaUBKTNV-1" source="HAlKXmDzrB93N0-EfDcC-4" target="f1oy8qKzSN7gV6_Jh2f9-16">
          <mxGeometry width="50" height="50" relative="1" as="geometry">
            <mxPoint x="450" y="290" as="sourcePoint" />
            <mxPoint x="610" y="520" as="targetPoint" />
            <Array as="points">
              <mxPoint x="-50" y="170" />
              <mxPoint x="-50" y="520" />
              <mxPoint x="610" y="520" />
            </Array>
          </mxGeometry>
        </mxCell>
        <mxCell id="f1oy8qKzSN7gV6_Jh2f9-18" value="&amp;lt;&amp;lt;include&amp;gt;&amp;gt;" style="html=1;verticalAlign=bottom;endArrow=open;dashed=1;endSize=8;curved=0;rounded=0;exitX=0.5;exitY=0;exitDx=0;exitDy=0;entryX=1;entryY=1;entryDx=0;entryDy=0;" edge="1" parent="WIyWlLk6GJQsqaUBKTNV-1" source="f1oy8qKzSN7gV6_Jh2f9-16" target="WbjszZyxLFySHewX1BDN-13">
          <mxGeometry relative="1" as="geometry">
            <mxPoint x="510" y="370" as="sourcePoint" />
            <mxPoint x="430" y="370" as="targetPoint" />
          </mxGeometry>
        </mxCell>
        <mxCell id="f1oy8qKzSN7gV6_Jh2f9-19" value="" style="endArrow=block;endSize=10;endFill=0;shadow=0;strokeWidth=1;rounded=0;edgeStyle=elbowEdgeStyle;elbow=vertical;" edge="1" parent="WIyWlLk6GJQsqaUBKTNV-1">
          <mxGeometry width="160" relative="1" as="geometry">
            <mxPoint x="770" y="360" as="sourcePoint" />
            <mxPoint x="-20" y="350" as="targetPoint" />
            <Array as="points">
              <mxPoint x="70" y="540" />
              <mxPoint x="745" y="510" />
            </Array>
          </mxGeometry>
        </mxCell>
        <mxCell id="f1oy8qKzSN7gV6_Jh2f9-21" value="&amp;lt;&amp;lt;include&amp;gt;&amp;gt;" style="html=1;verticalAlign=bottom;endArrow=open;dashed=1;endSize=8;curved=0;rounded=0;exitX=0;exitY=1;exitDx=0;exitDy=0;entryX=1;entryY=0;entryDx=0;entryDy=0;" edge="1" parent="WIyWlLk6GJQsqaUBKTNV-1" source="WbjszZyxLFySHewX1BDN-14" target="WbjszZyxLFySHewX1BDN-13">
          <mxGeometry relative="1" as="geometry">
            <mxPoint x="510" y="370" as="sourcePoint" />
            <mxPoint x="430" y="370" as="targetPoint" />
          </mxGeometry>
        </mxCell>
      </root>
    </mxGraphModel>
  </diagram>
</mxfile>
